<?xml version="1.0" encoding="utf-8"?>
<!-- Generator: Adobe Illustrator 25.2.1, SVG Export Plug-In . SVG Version: 6.00 Build 0)  -->
<svg version="1.1" id="Layer_1" xmlns="http://www.w3.org/2000/svg" xmlns:xlink="http://www.w3.org/1999/xlink" x="0px" y="0px"
	 viewBox="0 0 456 456" style="enable-background:new 0 0 456 456;" xml:space="preserve">
<style type="text/css">
	.st0{fill:#424040;}
</style>
<path class="st0" d="M141.8,456h98c27.4,0,52.7-15.9,66-41.6l84.8-162.8l-4.8-3.9c-0.1-0.1-0.2-0.2-0.3-0.2
	c-7.4-6.9-17.3-10.5-27.4-9.8c-10.3,0.8-19.8,5.8-26.3,13.9l-24.5,29.8c-1.9,2.3-5,3.1-7.8,2.1c-2.8-1-4.6-3.6-4.6-6.6L295,72
	c0-14-10.4-25.3-23.2-25.3c-12.5,0-22.7,10.8-23.2,24.3c0,20.7,0,43.2,0,64.6c0,48.5,0,90.3,0,94.4c0,1.9-0.7,3.6-2,4.9
	c-1.3,1.3-3.1,2-4.9,2h0c-1.8,0-3.6-0.7-4.9-2c-1.3-1.3-2.1-3.1-2.1-4.9c0-4.1,0-45.9,0-94.4c0-20.9,0-42.9,0-63.2
	c0-0.2,0-0.3,0-0.5c0-0.4,0-0.8,0-1.2c0-17,0-32.8,0-45.6c0-14-10.4-25.2-23.2-25.2h-0.7c-12.8,0-23.4,11.2-23.4,25.1v205
	c0,3.9-3.1,7-7,7c-3.9,0-7-3.1-7-7V51.6c0-14-10.2-25.3-23-25.3c-12.9,0-23,11.4-23,25.3v178.5c0,3.9-3.1,7-7,7c-3.9,0-7-3.1-7-7
	V124.9c0-14-10.6-24.9-23.4-24.9h-0.7c-12.8,0-23.2,11.1-23.2,25c-0.1,57.5-0.1,158.8,0,249.6C66.1,419.5,100.1,456,141.8,456z"/>
</svg>
